<svg width="21" height="21" viewBox="0 0 21 21" fill="none" xmlns="http://www.w3.org/2000/svg">
<path d="M9.18555 0.186523C14.1535 0.186523 18.1855 4.21852 18.1855 9.18652C18.1855 14.1545 14.1535 18.1865 9.18555 18.1865C4.21755 18.1865 0.185547 14.1545 0.185547 9.18652C0.185547 4.21852 4.21755 0.186523 9.18555 0.186523ZM9.18555 16.1865C13.053 16.1865 16.1855 13.054 16.1855 9.18652C16.1855 5.31902 13.053 2.18652 9.18555 2.18652C5.31805 2.18652 2.18555 5.31902 2.18555 9.18652C2.18555 13.054 5.31805 16.1865 9.18555 16.1865ZM17.6708 16.2576L20.4992 19.086L19.085 20.5002L16.2566 17.6718L17.6708 16.2576Z" fill="#AAAAAA"/>
</svg>
